<svg xmlns="http://www.w3.org/2000/svg" viewBox="0 0 80 80" role="img" aria-hidden="true"><circle cx="40" cy="40" r="40" fill="#eef4f0"/><circle cx="40" cy="33" r="15" fill="#e0b087"/><path d="M22 30 C22 18 58 18 58 30 C58 24 50 20 40 20 C30 20 22 24 22 30 Z" fill="#d9a441"/><path d="M18 31 H62 C62 27 54 25 40 25 C26 25 18 27 18 31 Z" fill="#d9a441"/><path d="M12 80 C12 60 26 52 40 52 C54 52 68 60 68 80 Z" fill="#1f5138"/><path d="M34 52 L40 62 L46 52" fill="none" stroke="#f4f1e8" stroke-width="2.5" stroke-linecap="round"/></svg>