<svg xmlns="http://www.w3.org/2000/svg" viewBox="0 0 640 440" role="img" aria-hidden="true"><rect width="640" height="440" fill="#e8f1f6"/><circle cx="512" cy="92" r="46" fill="#e0a64a" opacity="0.85"/><path d="M0 196 C90 150 170 206 250 176 C330 146 400 190 470 172 C540 154 590 178 640 164 V440 H0 Z" fill="#6fa287" opacity="0.55"/><path d="M0 240 C110 204 190 256 300 232 C400 210 470 244 640 216 V440 H0 Z" fill="#2f7350"/><path d="M0 300 C130 268 220 312 340 292 C450 274 530 300 640 282 V440 H0 Z" fill="#1f5138"/><path d="M-60 440 L-20 318" stroke="#6fa287" stroke-width="4" opacity="0.35"/><path d="M-14 440 L26 318" stroke="#6fa287" stroke-width="4" opacity="0.35"/><path d="M32 440 L72 318" stroke="#6fa287" stroke-width="4" opacity="0.35"/><path d="M78 440 L118 318" stroke="#6fa287" stroke-width="4" opacity="0.35"/><path d="M124 440 L164 318" stroke="#6fa287" stroke-width="4" opacity="0.35"/><path d="M170 440 L210 318" stroke="#6fa287" stroke-width="4" opacity="0.35"/><path d="M216 440 L256 318" stroke="#6fa287" stroke-width="4" opacity="0.35"/><path d="M262 440 L302 318" stroke="#6fa287" stroke-width="4" opacity="0.35"/><path d="M308 440 L348 318" stroke="#6fa287" stroke-width="4" opacity="0.35"/><path d="M354 440 L394 318" stroke="#6fa287" stroke-width="4" opacity="0.35"/><path d="M400 440 L440 318" stroke="#6fa287" stroke-width="4" opacity="0.35"/><path d="M446 440 L486 318" stroke="#6fa287" stroke-width="4" opacity="0.35"/><path d="M492 440 L532 318" stroke="#6fa287" stroke-width="4" opacity="0.35"/><path d="M538 440 L578 318" stroke="#6fa287" stroke-width="4" opacity="0.35"/><path d="M584 440 L624 318" stroke="#6fa287" stroke-width="4" opacity="0.35"/><path d="M630 440 L670 318" stroke="#6fa287" stroke-width="4" opacity="0.35"/><rect x="392" y="236" width="70" height="30" rx="7" fill="#f4f1e8"/><rect x="404" y="212" width="36" height="26" rx="6" fill="#f4f1e8"/><rect x="410" y="218" width="24" height="14" rx="3" fill="#e8f1f6"/><circle cx="408" cy="272" r="18" fill="#33403c"/><circle cx="408" cy="272" r="7" fill="#f4f1e8"/><circle cx="452" cy="276" r="12" fill="#33403c"/><circle cx="452" cy="276" r="5" fill="#f4f1e8"/><g><path d="M58 440 V330" stroke="#e0a64a" stroke-width="5" stroke-linecap="round"/><ellipse cx="58" cy="320" rx="9" ry="16" fill="#e0a64a"/><ellipse cx="49" cy="336" rx="7" ry="13" fill="#c4761c" transform="rotate(-24 49 336)"/><ellipse cx="67" cy="336" rx="7" ry="13" fill="#c4761c" transform="rotate(24 67 336)"/></g><g><path d="M104 440 V300" stroke="#e0a64a" stroke-width="5" stroke-linecap="round"/><ellipse cx="104" cy="290" rx="9" ry="16" fill="#e0a64a"/><ellipse cx="95" cy="306" rx="7" ry="13" fill="#c4761c" transform="rotate(-24 95 306)"/><ellipse cx="113" cy="306" rx="7" ry="13" fill="#c4761c" transform="rotate(24 113 306)"/></g><g><path d="M150 440 V342" stroke="#e0a64a" stroke-width="5" stroke-linecap="round"/><ellipse cx="150" cy="332" rx="9" ry="16" fill="#e0a64a"/><ellipse cx="141" cy="348" rx="7" ry="13" fill="#c4761c" transform="rotate(-24 141 348)"/><ellipse cx="159" cy="348" rx="7" ry="13" fill="#c4761c" transform="rotate(24 159 348)"/></g></svg>